Coordinates
version=1
nRows=15
nColumns=34
inDegrees=yes

Units are S.I. units (second, meters, Newtons, ...)
If the header above contains a line with 'inDegrees', this indicates whether rotational values are in degrees (yes) or radians (no).

endheader
time	pelvis_tilt	pelvis_list	pelvis_rotation	pelvis_tx	pelvis_ty	pelvis_tz	hip_flexion_r	hip_adduction_r	hip_rotation_r	knee_angle_r	ankle_angle_r	subtalar_angle_r	mtp_angle_r	hip_flexion_l	hip_adduction_l	hip_rotation_l	knee_angle_l	ankle_angle_l	subtalar_angle_l	mtp_angle_l	lumbar_extension	lumbar_bending	lumbar_rotation	arm_flex_r	arm_add_r	arm_rot_r	elbow_flex_r	pro_sup_r	arm_flex_l	arm_add_l	arm_rot_l	elbow_flex_l	pro_sup_l
      0.00000000	    -11.99325658	     -2.45919942	     10.20368964	      0.18691622	      0.91389296	      0.04894870	     16.09872442	     -1.63465987	     -8.74358569	      6.90251516	      5.33175896	    -17.31264961	      0.00000000	     21.53537460	     -5.65243705	      0.19883218	      8.75336865	      0.96798017	     -4.82510874	      0.00000000	      1.82817994	      3.41894341	      0.19348227	     -3.10744667	    -32.72905553	     27.81974860	     87.91805933	     86.06127022	    -27.09346510	    -27.92891709	      8.11916084	     95.50975744	     82.32899255
      0.01666670	    -11.83859638	     -2.91080848	     10.35814790	      0.18609897	      0.91647569	      0.04670312	     15.47132266	     -0.79921510	     -8.90537322	      5.38544075	      6.37901718	    -16.81379282	      0.00000000	     21.14163432	     -5.53410069	      1.30018143	      8.63904365	      1.73111157	     -4.99045361	      0.00000000	      3.46521547	      3.68104781	      0.36971922	     -2.71138058	    -32.08827088	     27.47720259	     85.80866282	     86.03747276	    -26.03298826	    -28.04161157	      8.67587844	     96.80122977	     82.61941087
      0.03333330	    -12.16909691	     -2.93937680	     10.18428085	      0.17816953	      0.91985599	      0.04329891	     15.91168701	     -0.75443369	    -10.18295346	      4.77909064	      5.31264099	    -17.37508686	      0.00000000	     21.76236306	     -5.29719759	      1.61063724	      8.49465083	      1.11957486	     -5.26284420	      0.00000000	      3.65105810	      3.87443974	      0.41089304	     -0.84263884	    -30.73270392	     25.68890207	     84.59900590	     85.96727205	    -23.73523300	    -27.82557875	      8.07024556	     98.30467562	     82.77188600
      0.05000000	    -11.48030203	     -2.56976658	      9.86762434	      0.18162222	      0.92440433	      0.04110372	     14.84787501	     -1.02488748	    -10.24102848	      4.01914646	      4.22059348	    -17.46328779	      0.00000000	     20.49625566	     -4.99545964	      1.73852064	      6.95284767	     -0.03790365	     -6.51787558	      0.00000000	      2.85401088	      3.50723572	      0.62544330	      0.89302043	    -28.68559304	     24.09785072	     83.39342111	     86.02636904	    -21.82915050	    -27.24955440	      7.78951281	     99.51466743	     82.98411279
      0.06666670	    -11.34920701	     -2.22705155	      9.44088247	      0.18015181	      0.92372271	      0.03926256	     14.71191040	     -1.37698135	    -10.41546125	      3.95638919	      3.85167357	    -17.37852846	      0.00000000	     20.06282464	     -4.60885655	      1.59913105	      6.54341482	     -0.94604859	     -7.81346315	      0.00000000	      2.34053647	      3.30849273	      0.80100297	      2.98596650	    -26.89838648	     23.66101868	     83.35269514	     86.32503302	    -19.37404306	    -26.44489360	      8.50452409	    101.70782675	     83.24080994
      0.08333330	    -10.94047567	     -1.93554292	      8.73022633	      0.17929662	      0.92691495	      0.03722174	     14.35087978	     -1.62099489	    -10.17690213	      3.81469040	      3.38976485	    -16.89142013	      0.00000000	     19.39174975	     -4.40378231	      1.35467722	      6.33226448	     -1.36210651	     -9.00004465	      0.00000000	      1.82169322	      3.24442085	      1.35905157	      5.61831085	    -25.12224858	     23.91165809	     82.75880617	     86.68009673	    -16.28614754	    -25.49208075	      9.36405828	    103.77896771	     83.45646796
      0.10000000	    -10.07331522	     -1.62055331	      8.45397984	      0.19064661	      0.93121835	      0.03389154	     12.93648113	     -1.85160262	    -10.19830170	      3.39499636	      3.20883449	    -16.04018608	      0.00000000	     17.78734723	     -4.14122676	      1.16449273	      5.55707281	     -2.48614972	    -10.07935511	      0.00000000	      1.39991334	      2.95118036	      1.60885221	      7.30934606	    -23.31609370	     24.24508354	     82.32868523	     87.23553476	    -14.38455133	    -24.54393947	     10.67221578	    106.14378896	     83.72845156
      0.11666670	     -9.21985743	     -1.41030882	      8.26683850	      0.19518695	      0.93374413	      0.03095603	     11.43027150	     -1.98369983	    -10.23848589	      2.96528604	      3.17305833	    -15.22376016	      0.00000000	     16.15766686	     -3.94022048	      0.97494561	      4.91767673	     -2.76700468	    -10.30697086	      0.00000000	      1.24870485	      2.73037090	      1.53545836	      9.02530103	    -21.24312887	     25.36358513	     81.38057961	     87.64968125	    -10.70048554	    -23.62725795	     12.84198127	    108.07422192	     83.95336136
      0.13333330	     -8.86039555	     -1.24729000	      7.99103629	      0.18154294	      0.92829891	      0.02815490	     11.23552773	     -2.26656590	     -9.74814884	      3.12180006	      3.81879772	    -14.83467893	      0.00000000	     15.74568299	     -3.61123884	      0.95409644	      4.76575845	     -2.79109021	    -10.97546638	      0.00000000	      0.92842065	      2.52450050	      1.49855086	     12.34634333	    -19.75039168	     26.78878708	     81.34790219	     88.08937412	     -5.00459680	    -22.48893557	     15.90331818	    109.49851124	     84.15455637
      0.15000000	     -8.26338359	     -1.03173569	      7.76982356	      0.18304338	      0.93343503	      0.02527760	     10.61219705	     -2.59883085	     -9.34544796	      3.20133616	      4.01587058	    -14.46126458	      0.00000000	     14.99843458	     -3.27663819	      0.98250473	      4.71833380	     -3.07039622	    -11.29518852	      0.00000000	      0.33004634	      2.08829335	      1.59653388	     15.65298489	    -18.12474065	     28.49412625	     81.19199506	     88.54589178	      1.99646699	    -21.14977730	     20.14965436	    109.11601791	     84.22048172
      0.16666670	     -7.80575987	     -0.83022774	      7.41062767	      0.18925238	      0.93534646	      0.02032970	     10.12369584	     -2.94913539	     -8.98734619	      3.44307115	      4.33977857	    -14.10260553	      0.00000000	     14.11156374	     -2.94453484	      0.85405839	      4.46097244	     -3.56682857	    -11.55140691	      0.00000000	     -0.55706424	      1.39113216	      2.93042358	     16.58119183	    -17.15447979	     28.23030137	     84.76846703	     89.36365074	      7.95181118	    -19.17157445	     25.16844137	    109.88222983	     83.83389701
      0.18333330	     -8.12950897	     -0.85166130	      6.70319788	      0.18316900	      0.92457832	      0.01718315	     11.11276566	     -3.16401790	     -8.13036694	      4.40382826	      5.00674159	    -14.36975655	      0.00000000	     14.57480810	     -2.75972454	      0.57987802	      4.89683918	     -2.58389400	    -12.18692817	      0.00000000	     -0.77608924	      1.02272529	      3.29942563	     21.06965269	    -15.50245975	     29.24415971	     86.27638277	     89.66206148	     12.51504492	    -17.27026634	     28.16443018	    112.73859158	     83.87141217
      0.20000000	     -8.12053110	     -0.73386764	      6.34258108	      0.18455657	      0.92914605	      0.01177943	     11.48584078	     -3.57269388	     -7.60528132	      4.98311528	      5.01129240	    -14.79212621	      0.00000000	     14.41662968	     -2.39583803	      0.55345501	      4.87672311	     -2.70687396	    -12.41004262	      0.00000000	     -1.38223185	      0.52417775	      3.60809258	     24.70019548	    -14.05263654	     31.19999789	     89.05607454	     90.20167054	     16.71316767	    -15.32174674	     31.49220787	    114.23984551	     83.84501336
      0.21666670	     -7.61421455	     -0.53913959	      6.30694772	      0.18600323	      0.94745911	      0.00502299	     10.83652359	     -4.08273079	     -7.71447068	      4.83981370	      4.09395183	    -14.53080185	      0.00000000	     13.55739744	     -1.91375512	      0.21793833	      4.06055730	     -3.96052767	    -12.40815926	      0.00000000	     -2.50196503	      0.12955874	      3.61422217	     27.61663803	    -12.23612434	     32.81494627	     90.61508007	     90.91349083	     21.87452519	    -12.43189406	     33.54001917	    111.85826244	     83.65402713
      0.23333330	     -6.89694161	     -0.35750571	      6.34250889	      0.18357868	      0.95763822	     -0.00076033	      9.92966008	     -4.54746005	     -7.90073359	      4.36593292	      3.19585024	    -13.64335717	      0.00000000	     12.48191637	     -1.43149408	     -0.18406727	      3.45988666	     -5.10647726	    -12.26929933	      0.00000000	     -4.10575003	     -0.38113944	      4.01271924	     30.57304597	    -10.66487123	     33.22366144	     91.54057911	     91.77205713	     26.20240523	     -9.41655887	     35.93307404	    110.19854114	     83.53501773
